<?xml version="1.0" standalone="no"?>
<!DOCTYPE svg PUBLIC "-//W3C//DTD SVG 1.1//EN" "http://www.w3.org/Graphics/SVG/1.1/DTD/svg11.dtd" >
<svg xmlns="http://www.w3.org/2000/svg" xmlns:xlink="http://www.w3.org/1999/xlink" version="1.1" viewBox="-10 0 266 256">
  <g transform="matrix(1 0 0 -1 0 204)">
   <path fill="currentColor"
d="M61 168q18 -6 27 -7q4 -3 2 -6q-5 -5 -10 -2q-6 2 -14 8q-5 3 -7 5q-4 3 2 2zM66 106q2 -1 2 -2q1 -2 0 -2q-3 -2 -6 -6v-1q-1 -6 -6 3q-21 -2 -28 4q-2 2 2 1q9 -3 20 0q4 1 11 2q2 0 5 1zM183 200q-35 -13 -63 -36q-1 -2 -2 -5v-3q0 -3 -2 -2q-5 -1 -5 4q-2 8 1 21
q0 2 2 0q1 -4 2 -7q0 -3 1 -3l4 3q28 19 63 32q2 1 3 0q7 -2 10 -4q1 -2 0 -3q-3 -2 -6 -5l-2 -2q-18 -15 -49 -35q-3 -1 -2 1q36 27 46 41q1 1 1 2q-1 1 -2 1zM182 159q5 -2 10 -2q1 -1 3 -1q2 -1 4 -1q2 -2 1 -3q-1 -2 -2 -2h-2q-17 0 -54 -13q14 -12 11 -12q-1 -1 -1 -3
q-2 -4 -1 -8q10 2 17 6q1 2 3 2q6 1 16 1l2 -2q0 -1 -2 -2q-17 -4 -36 -11q-1 -11 1 -22q5 0 13 1l32 4q5 7 8 6h3h1q4 -3 12 -4q15 -5 20 -9q4 -3 -1 -7q-2 -2 -6 1q-20 13 -40 9q-19 -2 -42 -6v-6q2 -49 4 -75q-1 -13 6 -19q0 -1 2 -3q2 -3 5 -6q1 -2 -1 -4t-3 -1
q-5 4 -11 11q-4 5 -6 6q-2 2 -3 4l-1 1q-2 1 0 5q-2 4 7 4q-1 10 -2 35q-2 23 -2 47q-21 -4 -42 -11q-8 -3 -20 -1q-16 -38 -30 -64q-5 -4 -9 -4q-2 2 0 4q8 1 20 31q7 19 23 48q3 7 2 -1q-2 -3 -3 -6q-1 -4 -2 -6q2 0 6 1q2 0 5 1q25 7 49 12q0 7 -1 12v10q-17 -7 -31 -4
q-1 0 1 1q2 0 4 1q18 4 26 7q0 18 -6 25q-31 -8 -45 -10q-2 1 1 2q9 3 32 9q13 4 18 6q23 6 29 11q2 6 4 6q1 0 4 -1z" />
  </g>

</svg>
